<?xml version="1.0" encoding="UTF-8"?>
<!-- Generated by Pixelmator Pro Trial 3.3.2 -->
<svg width="3171" height="2922" viewBox="0 0 3171 2922" xmlns="http://www.w3.org/2000/svg" xmlns:xlink="http://www.w3.org/1999/xlink">
    <path id="Trac" fill="#222831" stroke="none" d="M 0 -0.292969 L 3171.428467 -0.292969 L 3171.428467 2922 L 0 2922 Z"/>
    <g id="Associer">
        <g id="SvgjsG14623">
            <g id="Page-1">
                <g id="Artboard">
                    <g id="Asset-66LETTERS1">
                        <path id="Path" fill="#eeeeee" stroke="none" d="M 2159.347656 1151.787109 L 2004.609619 1121.551025 L 1658.849731 1054.319824 L 1658.849731 1354.90332 L 1942.714355 1410.039917 C 1978.641968 1417.154297 2004.609619 1448.457642 2004.609619 1485.096802 L 2004.609619 1792.438843 C 2004.609619 1829.078003 1978.997681 1860.381348 1942.714355 1867.495728 L 1620.076294 1930.102539 L 1574.899902 1938.639771 L 1574.899902 696.109863 L 1237.677246 619.274414 L 1237.677246 2323.173096 L 1574.544067 2245.270508 L 1619.720581 2234.95459 L 2004.253906 2146.380371 L 2165.039307 2109.385254 C 2244.009033 2091.243652 2299.857178 2020.811035 2299.857178 1939.707031 L 2299.857178 1322.532715 C 2299.857178 1239.294189 2240.807617 1167.794678 2159.347656 1151.787109 Z"/>
                        <path id="path1" fill="#eeeeee" stroke="none" d="M 871.285706 2247.404785 L 1154.08313 2312.857178 L 1154.08313 600.421143 L 871.285706 665.873779 Z"/>
                    </g>
                </g>
            </g>
        </g>
        <g id="SvgjsG14624">
            <path id="path2" fill="#eeeeee" stroke="none" visibility="hidden" d="M 266.492615 2550.56665 L 207.46756 2550.56665 L 207.46756 2705.484131 L 266.492615 2705.484131 C 269.844208 2705.484131 272.078583 2707.718506 272.078583 2711.070068 L 272.078583 2752.778564 C 272.078583 2756.130127 269.844208 2758.364502 266.492615 2758.364502 L 88.300255 2758.364502 C 84.948669 2758.364502 82.714287 2756.130127 82.714287 2752.778564 L 82.714287 2711.070068 C 82.714287 2707.718506 84.948669 2705.484131 88.300255 2705.484131 L 147.325317 2705.484131 L 147.325317 2550.56665 L 88.300255 2550.56665 C 84.948669 2550.56665 82.714287 2548.332275 82.714287 2544.980713 L 82.714287 2503.271973 C 82.714287 2499.92041 84.948669 2497.686035 88.300255 2497.686035 L 266.492615 2497.686035 C 269.844208 2497.686035 272.078583 2499.92041 272.078583 2503.271973 L 272.078583 2544.980713 C 272.078583 2548.332275 269.844208 2550.56665 266.492615 2550.56665 Z M 524.5271 2497.686035 C 527.878662 2497.686035 530.113037 2499.92041 530.113037 2503.271973 L 530.113037 2752.778564 C 530.113037 2756.130127 527.878662 2758.364502 524.5271 2758.364502 L 469.412201 2758.364502 C 466.433044 2758.364502 464.198639 2757.247559 462.709045 2754.640625 L 373.892151 2595.068115 L 373.892151 2752.778564 C 373.892151 2756.130127 371.657776 2758.364502 368.306183 2758.364502 L 319.335876 2758.364502 C 315.984283 2758.364502 313.749908 2756.130127 313.749908 2752.778564 L 313.749908 2503.271973 C 313.749908 2499.92041 315.984283 2497.686035 319.335876 2497.686035 L 374.264557 2497.686035 C 377.243744 2497.686035 379.478149 2498.803223 380.967712 2501.410156 L 469.784607 2660.796387 L 469.784607 2503.271973 C 469.784607 2499.92041 472.018982 2497.686035 475.370575 2497.686035 L 524.5271 2497.686035 Z M 745.880371 2497.686035 C 749.231934 2497.686035 751.46637 2499.92041 751.46637 2503.271973 L 751.46637 2544.980713 C 751.46637 2548.332275 749.231934 2550.56665 745.880371 2550.56665 L 636.581604 2550.56665 L 636.581604 2602.888428 L 737.315186 2602.888428 C 740.666809 2602.888428 742.901123 2605.122803 742.901123 2608.474365 L 742.901123 2650.369141 C 742.901123 2653.720703 740.666809 2655.955078 737.315186 2655.955078 L 636.581604 2655.955078 L 636.581604 2752.778564 C 636.581604 2756.130127 634.347229 2758.364502 630.995605 2758.364502 L 582.02533 2758.364502 C 578.673767 2758.364502 576.439331 2756.130127 576.439331 2752.778564 L 576.439331 2503.271973 C 576.439331 2499.92041 578.673767 2497.686035 582.02533 2497.686035 L 745.880371 2497.686035 Z M 916.215149 2763.205811 C 842.480408 2763.205811 781.965759 2703.62207 781.965759 2629.142578 C 781.965759 2554.290527 842.480408 2494.707031 916.215149 2494.707031 C 990.136047 2494.707031 1050.836914 2554.290527 1050.836914 2629.142578 C 1050.836914 2703.62207 990.136047 2763.205811 916.215149 2763.205811 Z M 916.215149 2704.925537 C 957.737488 2704.925537 990.322327 2671.595947 990.322327 2629.142578 C 990.322327 2586.316895 957.737488 2552.987305 916.215149 2552.987305 C 875.065186 2552.987305 842.480408 2586.316895 842.480408 2629.142578 C 842.480408 2671.595947 875.065186 2704.925537 916.215149 2704.925537 Z M 1245.936157 2665.82373 L 1291.368774 2751.847656 C 1293.41687 2755.757813 1291.182495 2758.364502 1286.900024 2758.364502 L 1238.860596 2758.364502 C 1235.695313 2758.364502 1233.833252 2757.061279 1232.34375 2754.082031 L 1191.56604 2673.644043 L 1187.09729 2673.644043 L 1149.857544 2673.644043 L 1149.857544 2752.778564 C 1149.857544 2756.130127 1147.623169 2758.364502 1144.271606 2758.364502 L 1095.30127 2758.364502 C 1091.949707 2758.364502 1089.715332 2756.130127 1089.715332 2752.778564 L 1089.715332 2503.271973 C 1089.715332 2499.92041 1091.949707 2497.686035 1095.30127 2497.686035 L 1187.09729 2497.686035 C 1269.21106 2497.686035 1293.789307 2526.919434 1293.789307 2585.572021 C 1293.789307 2626.908203 1281.686401 2653.534668 1245.936157 2665.82373 Z M 1149.857544 2550.56665 L 1149.857544 2620.763672 L 1191.379883 2620.763672 C 1220.985596 2620.763672 1236.253906 2614.432861 1236.253906 2585.572021 C 1236.253906 2557.083496 1220.985596 2550.56665 1191.379883 2550.56665 L 1149.857544 2550.56665 Z M 1597.814941 2497.686035 C 1601.166504 2497.686035 1603.400879 2499.92041 1603.400879 2503.271973 L 1603.400879 2752.778564 C 1603.400879 2756.130127 1601.166504 2758.364502 1597.814941 2758.364502 L 1548.844604 2758.364502 C 1545.493042 2758.364502 1543.258667 2756.130127 1543.258667 2752.778564 L 1543.258667 2629.142578 L 1494.102051 2753.709473 C 1492.984985 2756.688721 1490.378174 2758.364502 1487.398926 2758.364502 L 1443.455933 2758.364502 C 1440.476929 2758.364502 1437.683838 2756.688721 1436.566772 2753.709473 L 1387.223999 2628.583984 L 1387.223999 2752.778564 C 1387.223999 2756.130127 1384.989502 2758.364502 1381.637939 2758.364502 L 1332.667725 2758.364502 C 1329.31604 2758.364502 1327.081665 2756.130127 1327.081665 2752.778564 L 1327.081665 2503.271973 C 1327.081665 2499.92041 1329.31604 2497.686035 1332.667725 2497.686035 L 1387.596313 2497.686035 C 1390.575562 2497.686035 1393.182373 2498.803223 1394.299438 2501.410156 L 1465.42749 2688.726074 L 1536.369263 2501.410156 C 1537.48645 2498.803223 1540.093262 2497.686035 1543.072388 2497.686035 L 1597.814941 2497.686035 Z M 1873.352051 2752.033691 C 1874.655518 2755.757813 1872.979614 2758.364502 1868.883301 2758.364502 L 1817.864746 2758.364502 C 1814.885498 2758.364502 1812.651245 2757.247559 1811.533936 2753.895752 L 1799.617188 2717.773193 L 1706.331665 2717.773193 L 1694.414917 2753.895752 C 1693.483887 2757.247559 1691.063354 2758.364502 1688.084106 2758.364502 L 1637.065674 2758.364502 C 1632.969238 2758.364502 1631.293457 2755.757813 1632.596924 2752.033691 L 1723.834351 2502.154785 C 1724.951538 2499.175781 1727.185913 2497.686035 1730.165161 2497.686035 L 1774.852905 2497.686035 C 1777.832031 2497.686035 1780.997314 2499.175781 1782.114624 2502.154785 Z M 1723.275757 2666.940918 L 1782.859497 2666.940918 L 1753.067505 2576.820557 Z M 2089.119385 2497.686035 C 2092.470947 2497.686035 2094.705322 2499.92041 2094.705322 2503.271973 L 2094.705322 2544.980713 C 2094.705322 2548.332275 2092.470947 2550.56665 2089.119385 2550.56665 L 2021.715332 2550.56665 L 2021.715332 2752.778564 C 2021.715332 2756.130127 2019.481079 2758.364502 2016.129517 2758.364502 L 1967.159058 2758.364502 C 1963.807495 2758.364502 1961.57312 2756.130127 1961.57312 2752.778564 L 1961.57312 2550.56665 L 1894.169067 2550.56665 C 1890.817505 2550.56665 1888.58313 2548.332275 1888.58313 2544.980713 L 1888.58313 2503.271973 C 1888.58313 2499.92041 1890.817505 2497.686035 1894.169067 2497.686035 L 2089.119385 2497.686035 Z M 2306.189941 2550.56665 L 2247.165039 2550.56665 L 2247.165039 2705.484131 L 2306.189941 2705.484131 C 2309.541748 2705.484131 2311.776123 2707.718506 2311.776123 2711.070068 L 2311.776123 2752.778564 C 2311.776123 2756.130127 2309.541748 2758.364502 2306.189941 2758.364502 L 2127.997803 2758.364502 C 2124.645996 2758.364502 2122.411865 2756.130127 2122.411865 2752.778564 L 2122.411865 2711.070068 C 2122.411865 2707.718506 2124.645996 2705.484131 2127.997803 2705.484131 L 2187.022705 2705.484131 L 2187.022705 2550.56665 L 2127.997803 2550.56665 C 2124.645996 2550.56665 2122.411865 2548.332275 2122.411865 2544.980713 L 2122.411865 2503.271973 C 2122.411865 2499.92041 2124.645996 2497.686035 2127.997803 2497.686035 L 2306.189941 2497.686035 C 2309.541748 2497.686035 2311.776123 2499.92041 2311.776123 2503.271973 L 2311.776123 2544.980713 C 2311.776123 2548.332275 2309.541748 2550.56665 2306.189941 2550.56665 Z M 2480.249023 2763.205811 C 2406.51416 2763.205811 2345.999512 2703.62207 2345.999512 2629.142578 C 2345.999512 2554.290527 2406.51416 2494.707031 2480.249023 2494.707031 C 2554.169922 2494.707031 2614.870605 2554.290527 2614.870605 2629.142578 C 2614.870605 2703.62207 2554.169922 2763.205811 2480.249023 2763.205811 Z M 2480.249023 2704.925537 C 2521.77124 2704.925537 2554.355957 2671.595947 2554.355957 2629.142578 C 2554.355957 2586.316895 2521.77124 2552.987305 2480.249023 2552.987305 C 2439.098877 2552.987305 2406.51416 2586.316895 2406.51416 2629.142578 C 2406.51416 2671.595947 2439.098877 2704.925537 2480.249023 2704.925537 Z M 2531.267334 2787.039307 C 2534.991211 2787.039307 2537.22583 2788.528809 2537.22583 2792.25293 L 2537.22583 2826.885742 C 2537.22583 2830.237305 2535.36377 2832.844238 2531.639648 2832.844238 C 2490.676025 2834.706055 2483.9729 2814.968994 2443.567627 2816.831055 C 2439.84375 2816.831055 2437.609131 2815.341309 2437.609131 2811.617432 L 2437.609131 2777.170654 C 2437.609131 2773.819092 2439.471436 2771.212402 2443.567627 2771.212402 C 2483.9729 2771.584717 2490.862061 2786.666748 2531.267334 2787.039307 Z M 2862.850342 2497.686035 C 2866.201904 2497.686035 2868.436279 2499.92041 2868.436279 2503.271973 L 2868.436279 2652.789795 C 2868.436279 2728.945313 2822.259033 2763.764404 2757.833984 2763.764404 C 2693.781738 2763.764404 2647.231934 2728.945313 2647.231934 2652.789795 L 2647.231934 2503.271973 C 2647.231934 2499.92041 2649.466553 2497.686035 2652.817871 2497.686035 L 2701.78833 2497.686035 C 2705.139893 2497.686035 2707.374268 2499.92041 2707.374268 2503.271973 L 2707.374268 2652.789795 C 2707.374268 2685.374512 2726.366455 2705.856445 2757.833984 2705.856445 C 2789.674316 2705.856445 2808.108154 2685.374512 2808.108154 2652.789795 L 2808.108154 2503.271973 C 2808.108154 2499.92041 2810.342285 2497.686035 2813.693848 2497.686035 L 2862.850342 2497.686035 Z M 3077.128174 2705.484131 C 3080.479736 2705.484131 3082.713867 2707.718506 3082.713867 2711.070068 L 3082.713867 2752.778564 C 3082.713867 2756.130127 3080.479736 2758.364502 3077.128174 2758.364502 L 2913.831787 2758.364502 C 2910.47998 2758.364502 2908.245605 2756.130127 2908.245605 2752.778564 L 2908.245605 2503.271973 C 2908.245605 2499.92041 2910.47998 2497.686035 2913.831787 2497.686035 L 3076.755615 2497.686035 C 3080.107178 2497.686035 3082.341797 2499.92041 3082.341797 2503.271973 L 3082.341797 2544.980713 C 3082.341797 2548.332275 3080.107178 2550.56665 3076.755615 2550.56665 L 2968.387695 2550.56665 L 2968.387695 2600.654053 L 3067.631836 2600.654053 C 3070.983643 2600.654053 3073.218018 2602.888428 3073.218018 2606.23999 L 3073.218018 2647.94873 C 3073.218018 2651.300293 3070.983643 2653.534668 3067.631836 2653.534668 L 2968.387695 2653.534668 L 2968.387695 2705.484131 L 3077.128174 2705.484131 Z"/>
        </g>
        <g id="SvgjsG14625">
            <path id="path3" fill="#eeeeee" stroke="none" visibility="hidden" d="M 306.938446 3115.013916 C 361.051208 3125.178711 391.844666 3160.755615 391.844666 3217.85791 C 391.844666 3298.877686 349.690521 3338.341064 238.475327 3338.341064 L 91.68325 3338.341064 C 86.301872 3338.341064 82.714287 3334.753418 82.714287 3329.37207 L 82.714287 2928.758301 C 82.714287 2923.376953 86.301872 2919.789307 91.68325 2919.789307 L 245.351547 2919.789307 C 332.350525 2919.789307 370.020203 2967.922852 370.020203 3028.612793 C 370.020203 3072.560791 347.597778 3103.952148 306.938446 3115.013916 Z M 280.330536 3041.169434 C 280.330536 3013.664551 267.773956 3004.695557 236.382584 3004.695557 L 179.280151 3004.695557 L 179.280151 3080.632813 L 235.186722 3080.632813 C 268.670868 3080.632813 280.330536 3070.168945 280.330536 3041.169434 Z M 242.361893 3253.434814 C 280.330536 3253.434814 295.577759 3237.888672 295.577759 3207.095215 C 295.577759 3172.415283 277.938782 3160.157715 241.464996 3160.157715 L 179.280151 3160.157715 L 179.280151 3253.434814 L 242.361893 3253.434814 Z M 648.895264 3346.114258 C 530.504883 3346.114258 433.341095 3250.445313 433.341095 3130.859131 C 433.341095 3010.674805 530.504883 2915.005859 648.895264 2915.005859 C 767.584595 2915.005859 865.047363 3010.674805 865.047363 3130.859131 C 865.047363 3250.445313 767.584595 3346.114258 648.895264 3346.114258 Z M 648.895264 3252.538086 C 715.564575 3252.538086 767.883545 3199.023193 767.883545 3130.859131 C 767.883545 3062.096924 715.564575 3008.582031 648.895264 3008.582031 C 582.823853 3008.582031 530.504883 3062.096924 530.504883 3130.859131 C 530.504883 3199.023193 582.823853 3252.538086 648.895264 3252.538086 Z M 1215.076172 3004.695557 L 1120.304077 3004.695557 L 1120.304077 3253.434814 L 1215.076172 3253.434814 C 1220.457642 3253.434814 1224.045166 3257.022461 1224.045166 3262.403809 L 1224.045166 3329.37207 C 1224.045166 3334.753418 1220.457642 3338.341064 1215.076172 3338.341064 L 928.966187 3338.341064 C 923.584839 3338.341064 919.997192 3334.753418 919.997192 3329.37207 L 919.997192 3262.403809 C 919.997192 3257.022461 923.584839 3253.434814 928.966187 3253.434814 L 1023.738281 3253.434814 L 1023.738281 3004.695557 L 928.966187 3004.695557 C 923.584839 3004.695557 919.997192 3001.10791 919.997192 2995.726563 L 919.997192 2928.758301 C 919.997192 2923.376953 923.584839 2919.789307 928.966187 2919.789307 L 1215.076172 2919.789307 C 1220.457642 2919.789307 1224.045166 2923.376953 1224.045166 2928.758301 L 1224.045166 2995.726563 C 1224.045166 3001.10791 1220.457642 3004.695557 1215.076172 3004.695557 Z M 1425.189209 3085.117188 C 1503.817139 3099.766602 1586.630615 3127.271484 1586.630615 3219.053955 C 1586.630615 3308.44458 1532.816772 3347.310059 1427.281982 3347.310059 C 1328.922241 3347.310059 1280.489868 3313.825928 1273.015747 3230.115479 C 1272.417847 3224.13623 1276.005371 3220.249756 1281.386719 3220.249756 L 1353.437378 3220.249756 C 1358.818848 3220.249756 1360.911621 3223.53833 1362.406494 3228.321777 C 1370.179565 3249.847412 1389.313354 3260.311035 1427.281982 3260.311035 C 1467.343384 3260.311035 1492.157593 3248.950439 1492.157593 3222.342529 C 1492.157593 3194.538574 1483.188477 3179.590332 1425.189209 3168.229736 C 1351.045776 3153.580322 1279.293945 3122.786865 1279.293945 3038.47876 C 1279.293945 2961.345703 1326.231567 2914.707031 1425.189209 2914.707031 C 1513.384033 2914.707031 1566.001953 2947.294189 1574.074097 3028.014893 C 1574.671997 3033.994141 1571.084473 3038.777588 1565.703003 3038.777588 L 1499.033691 3038.777588 C 1493.652344 3038.777588 1491.55957 3034.592041 1490.064697 3029.808594 C 1484.384399 3012.46875 1465.549561 3000.809082 1426.68396 3000.809082 C 1391.107178 3000.809082 1373.169189 3016.355225 1373.169189 3038.47876 C 1373.169189 3056.416504 1371.973389 3074.952393 1425.189209 3085.117188 Z M 1902.876343 2926.9646 C 1904.670166 2921.583008 1908.257813 2919.789307 1913.04126 2919.789307 L 1994.957886 2919.789307 C 2001.535156 2919.789307 2004.225708 2923.974854 2002.132935 2929.954102 L 1855.639771 3331.166016 C 1853.846069 3335.949463 1848.76355 3338.341064 1843.980103 3338.341064 L 1772.228516 3338.341064 C 1767.444946 3338.341064 1763.857422 3335.949463 1762.063599 3331.166016 L 1615.570435 2929.954102 C 1613.477783 2923.974854 1616.168457 2919.789307 1622.745728 2919.789307 L 1704.662231 2919.789307 C 1709.445679 2919.789307 1713.332275 2921.583008 1714.827026 2926.9646 L 1809.001221 3211.280762 Z M 2320.172607 3253.434814 C 2325.553955 3253.434814 2329.141357 3257.022461 2329.141357 3262.403809 L 2329.141357 3329.37207 C 2329.141357 3334.753418 2325.553955 3338.341064 2320.172607 3338.341064 L 2057.979492 3338.341064 C 2052.598145 3338.341064 2049.010742 3334.753418 2049.010742 3329.37207 L 2049.010742 2928.758301 C 2049.010742 2923.376953 2052.598145 2919.789307 2057.979492 2919.789307 L 2319.574463 2919.789307 C 2324.955811 2919.789307 2328.543457 2923.376953 2328.543457 2928.758301 L 2328.543457 2995.726563 C 2328.543457 3001.10791 2324.955811 3004.695557 2319.574463 3004.695557 L 2145.576416 3004.695557 L 2145.576416 3085.117188 L 2304.925293 3085.117188 C 2310.306641 3085.117188 2313.894287 3088.704834 2313.894287 3094.086182 L 2313.894287 3161.054688 C 2313.894287 3166.436035 2310.306641 3170.023438 2304.925293 3170.023438 L 2145.576416 3170.023438 L 2145.576416 3253.434814 L 2320.172607 3253.434814 Z M 2643.892334 3189.755371 L 2716.839844 3327.877441 C 2720.128662 3334.155762 2716.541016 3338.341064 2709.664795 3338.341064 L 2632.531738 3338.341064 C 2627.449219 3338.341064 2624.459717 3336.248291 2622.067871 3331.464844 L 2556.594482 3202.311768 L 2549.419189 3202.311768 L 2489.626221 3202.311768 L 2489.626221 3329.37207 C 2489.626221 3334.753418 2486.038574 3338.341064 2480.657227 3338.341064 L 2402.029297 3338.341064 C 2396.647949 3338.341064 2393.060303 3334.753418 2393.060303 3329.37207 L 2393.060303 2928.758301 C 2393.060303 2923.376953 2396.647949 2919.789307 2402.029297 2919.789307 L 2549.419189 2919.789307 C 2681.262939 2919.789307 2720.726563 2966.727051 2720.726563 3060.901123 C 2720.726563 3127.271484 2701.293945 3170.023438 2643.892334 3189.755371 Z M 2489.626221 3004.695557 L 2489.626221 3117.405518 L 2556.295654 3117.405518 C 2603.831055 3117.405518 2628.346191 3107.240723 2628.346191 3060.901123 C 2628.346191 3015.159424 2603.831055 3004.695557 2556.295654 3004.695557 L 2489.626221 3004.695557 Z M 3073.745117 2919.789307 C 3079.126465 2919.789307 3082.713867 2923.376953 3082.713867 2928.758301 L 3082.713867 2995.726563 C 3082.713867 3001.10791 3079.126465 3004.695557 3073.745117 3004.695557 L 2965.519531 3004.695557 L 2965.519531 3329.37207 C 2965.519531 3334.753418 2961.931885 3338.341064 2956.550537 3338.341064 L 2877.922607 3338.341064 C 2872.54126 3338.341064 2868.953857 3334.753418 2868.953857 3329.37207 L 2868.953857 3004.695557 L 2760.728271 3004.695557 C 2755.34668 3004.695557 2751.759033 3001.10791 2751.759033 2995.726563 L 2751.759033 2928.758301 C 2751.759033 2923.376953 2755.34668 2919.789307 2760.728271 2919.789307 L 3073.745117 2919.789307 Z"/>
        </g>
    </g>
</svg>
